<?xml version="1.0" encoding="UTF-8" standalone="no"?>
<svg
   xmlns="http://www.w3.org/2000/svg"
   version="1.1"
   viewBox="40 56.8 114.6 91.5"
   width="114.6"
   height="91.5">
  <path
     fill="#2b2b2b"
     d="M 124.8,82.2 H 41.9 C 40.8,82.2 40,81.3 40,80.3 V 58.7 c 0,-1.1 0.9,-1.9 1.9,-1.9 h 82.9 c 1.1,0 1.9,0.9 1.9,1.9 V 80 c 0,1.1 -0.7,2.2 -1.9,2.2 z" />
  <path
     fill="#2b2b2b"
     d="M 102.6,115.5 H 42.1 C 41,115.5 40,114.6 40,113.4 V 92.2 c 0,-1.1 0.9,-2.1 2.1,-2.1 h 60.5 c 1.1,0 2.1,0.9 2.1,2.1 v 21.2 c 0,1.2 -0.9,2.1 -2.1,2.1 z" />
  <linearGradient
     id="SVGID_1_"
     gradientUnits="userSpaceOnUse"
     x1="61.400002"
     y1="117.4396"
     x2="175.7851"
     y2="117.4396"
     gradientTransform="matrix(0.7601,0,0,0.7601,23.0196,46.352)">
    <stop
       offset="0.1656"
       style="stop-color:#D0BD2B" />
    <stop
       offset="1"
       style="stop-color:#D0BD2B;stop-opacity:0" />
  </linearGradient>
  <path
     fill="url(#SVGID_1_)"
     d="M 154.6,148.3 H 71.7 c -1.1,0 -2.1,-0.9 -2.1,-2.1 V 125 c 0,-1.1 0.9,-2.1 2.1,-2.1 h 82.7 c 1.1,0 2.1,0.9 2.1,2.1 v 21.2 c 0,1.2 -0.9,2.1 -1.9,2.1 z" />
</svg>
