<svg xmlns="http://www.w3.org/2000/svg" width="165" height="28" viewBox="0 0 165 28" role="img" aria-label="Logan Search">
  <!-- Lens on contigs mark plus the wordmark, outlined from Schibsted Grotesk
       (700 and 500) so the header shows the right face as an <img>. -->
  <g transform="scale(0.4375)">
  <defs><clipPath id="lens-lockup"><circle cx="34" cy="31" r="11"/></clipPath></defs>
  <rect width="64" height="64" rx="15" fill="#5B2BB5"/>
  <rect x="9" y="15" width="30" height="6" rx="3" fill="#C9B8F0"/>
  <rect x="9" y="28" width="44" height="6" rx="3" fill="#C9B8F0"/>
  <rect x="9" y="41" width="22" height="6" rx="3" fill="#C9B8F0"/>
  <circle cx="34" cy="31" r="11" fill="#3B1782"/>
  <rect x="9" y="28" width="44" height="6" rx="3" fill="#F0A93B" clip-path="url(#lens-lockup)"/>
  <circle cx="34" cy="31" r="11" fill="none" stroke="#FFFFFF" stroke-width="3.5"/>
  <line x1="42.5" y1="39.5" x2="51" y2="48" stroke="#FFFFFF" stroke-width="5" stroke-linecap="round"/>
  </g>
  <path fill="#3B1782" d="M39.32 21.5V8.14H42.18V19.08H48.62V21.5Z M54.8 21.74Q53.29 21.74 52.13 21.08Q50.98 20.41 50.33 19.22Q49.68 18.04 49.68 16.49Q49.68 14.94 50.33 13.75Q50.98 12.57 52.13 11.9Q53.29 11.24 54.8 11.24Q56.32 11.24 57.47 11.9Q58.63 12.57 59.28 13.75Q59.93 14.93 59.93 16.49Q59.93 18.04 59.28 19.23Q58.63 20.41 57.47 21.08Q56.32 21.74 54.8 21.74ZM54.81 19.71Q55.84 19.71 56.44 18.84Q57.04 17.98 57.04 16.49Q57.04 15 56.44 14.14Q55.84 13.27 54.81 13.27Q53.77 13.27 53.17 14.14Q52.58 15 52.58 16.49Q52.58 17.98 53.17 18.84Q53.77 19.71 54.81 19.71Z M65.85 25.36Q63.43 25.36 62.25 24.72Q61.08 24.08 61.08 22.74Q61.08 21.92 61.5 21.41Q61.92 20.9 62.65 20.66Q62.3 20.41 62.1 20.05Q61.9 19.69 61.9 19.26Q61.9 18.69 62.26 18.26Q62.61 17.84 63.27 17.65Q62.53 17.19 62.12 16.46Q61.71 15.73 61.71 14.79Q61.71 13.72 62.25 12.92Q62.78 12.12 63.75 11.68Q64.71 11.24 66 11.24Q67.29 11.24 68.25 11.68Q69.22 12.12 69.76 12.92Q70.29 13.72 70.29 14.8Q70.29 15.86 69.76 16.66Q69.22 17.45 68.25 17.89Q67.28 18.33 65.98 18.33H65.31Q64.4 18.33 64.4 18.83Q64.4 19.3 65.31 19.3H67.34Q68.37 19.3 69.09 19.55Q69.81 19.8 70.26 20.22Q70.71 20.65 70.91 21.19Q71.12 21.74 71.12 22.34Q71.12 23.87 69.91 24.61Q68.71 25.36 66.21 25.36ZM65.92 23.59H66.25Q68.32 23.59 68.32 22.36Q68.32 21.87 67.95 21.55Q67.59 21.23 66.64 21.23H65.33Q64.75 21.23 64.28 21.51Q63.82 21.78 63.82 22.41Q63.82 23.01 64.33 23.3Q64.84 23.59 65.92 23.59ZM66 16.6Q66.81 16.6 67.25 16.13Q67.69 15.66 67.69 14.8Q67.69 13.94 67.25 13.46Q66.81 12.98 66 12.98Q65.2 12.98 64.76 13.46Q64.31 13.94 64.31 14.8Q64.31 15.66 64.76 16.13Q65.2 16.6 66 16.6ZM67.48 12.68V11.67Q67.48 10.65 68.08 10.11Q68.68 9.56 69.8 9.56H70.76V11.59H69.64Q69.36 11.59 69.27 11.69Q69.18 11.79 69.18 12.11V12.68Z M75.75 21.74Q74.79 21.74 73.98 21.4Q73.18 21.07 72.69 20.4Q72.2 19.73 72.2 18.73Q72.2 17.65 72.83 16.9Q73.45 16.14 74.64 15.75Q75.82 15.35 77.5 15.35H78.91L78.75 15.61V15.03Q78.75 14.04 78.39 13.55Q78.03 13.07 77.19 13.07Q76.39 13.07 75.97 13.49Q75.54 13.92 75.45 14.69L72.64 14.21Q72.79 13.37 73.35 12.7Q73.91 12.02 74.91 11.63Q75.9 11.23 77.35 11.23Q78.67 11.23 79.59 11.65Q80.51 12.07 80.99 13.02Q81.47 13.97 81.47 15.55V18.96Q81.47 19.27 81.55 19.37Q81.64 19.47 81.93 19.47H82.38V21.5H81.06Q79.98 21.5 79.42 20.96Q78.86 20.41 78.86 19.4V18.93L79.34 19.11Q79.22 19.51 78.99 19.96Q78.75 20.41 78.34 20.82Q77.93 21.22 77.3 21.48Q76.67 21.74 75.75 21.74ZM76.55 19.85Q77.2 19.85 77.7 19.55Q78.2 19.25 78.48 18.66Q78.77 18.06 78.77 17.17V16.95H77.6Q76.61 16.95 76.06 17.21Q75.51 17.47 75.28 17.85Q75.06 18.22 75.06 18.58Q75.06 18.86 75.2 19.16Q75.33 19.45 75.65 19.65Q75.97 19.85 76.55 19.85Z M84.24 21.5V11.48H86.91V13.79L86.84 13.38Q87.3 12.38 88.13 11.81Q88.97 11.24 90.15 11.24Q91.32 11.24 92.06 11.77Q92.81 12.3 93.17 13.23Q93.53 14.17 93.53 15.39V21.5H90.77V15.57Q90.77 14.5 90.42 13.91Q90.06 13.33 89.19 13.33Q88.17 13.33 87.58 14.21Q87 15.09 87 16.91V21.5Z"/>
  <path fill="#5B2BB5" d="M106.29 21.73Q104.76 21.73 103.59 21.23Q102.41 20.73 101.67 19.76Q100.93 18.79 100.7 17.4L102.96 16.94Q103.03 18.48 103.87 19.29Q104.72 20.1 106.24 20.1Q107.18 20.1 107.82 19.8Q108.45 19.51 108.77 18.99Q109.09 18.46 109.09 17.77Q109.09 16.81 108.51 16.33Q107.92 15.86 106.92 15.64L105.29 15.29Q104.75 15.17 104.08 14.97Q103.42 14.76 102.81 14.37Q102.21 13.98 101.81 13.32Q101.42 12.67 101.42 11.65Q101.42 10.35 102.08 9.53Q102.75 8.7 103.84 8.31Q104.93 7.91 106.2 7.91Q107.59 7.91 108.62 8.35Q109.65 8.79 110.29 9.6Q110.94 10.42 111.16 11.56L108.93 12.02Q108.86 11.23 108.54 10.68Q108.22 10.13 107.63 9.84Q107.05 9.54 106.15 9.54Q105.41 9.54 104.79 9.76Q104.18 9.97 103.82 10.41Q103.45 10.85 103.45 11.53Q103.45 12.29 104.02 12.73Q104.6 13.18 105.84 13.45L107.5 13.82Q108.44 14.03 109.29 14.46Q110.14 14.89 110.68 15.66Q111.21 16.43 111.21 17.7Q111.21 18.98 110.61 19.88Q110.01 20.78 108.9 21.26Q107.8 21.73 106.29 21.73Z M117.64 21.73Q116.2 21.73 115.12 21.09Q114.04 20.45 113.45 19.27Q112.85 18.1 112.85 16.49Q112.85 14.89 113.44 13.71Q114.04 12.53 115.1 11.89Q116.17 11.25 117.59 11.25Q118.4 11.25 119.21 11.51Q120.03 11.76 120.7 12.39Q121.38 13.02 121.79 14.12Q122.2 15.22 122.2 16.91H114.06V15.56H120.55L120.14 16.12Q120.09 14.89 119.73 14.14Q119.38 13.4 118.81 13.06Q118.24 12.72 117.55 12.72Q116.71 12.72 116.11 13.17Q115.51 13.62 115.19 14.47Q114.88 15.31 114.88 16.5Q114.88 18.27 115.59 19.25Q116.29 20.23 117.64 20.23Q118.58 20.23 119.23 19.75Q119.88 19.27 120.19 18.35L121.99 18.91Q121.63 19.82 121 20.45Q120.36 21.08 119.51 21.4Q118.65 21.73 117.64 21.73Z M127.1 21.73Q126.11 21.73 125.35 21.36Q124.59 20.98 124.17 20.31Q123.75 19.65 123.75 18.76Q123.75 17.81 124.3 17.05Q124.86 16.29 125.99 15.85Q127.12 15.41 128.84 15.41H130.44L130.27 15.6V15.05Q130.27 13.9 129.82 13.3Q129.37 12.7 128.32 12.7Q127.32 12.7 126.79 13.21Q126.26 13.73 126.2 14.62L124.16 14.19Q124.27 13.38 124.81 12.71Q125.35 12.05 126.27 11.65Q127.19 11.25 128.44 11.25Q129.69 11.25 130.5 11.7Q131.3 12.15 131.7 13.03Q132.09 13.92 132.09 15.24V19.49Q132.09 19.8 132.18 19.9Q132.27 20 132.55 20H133.09V21.5H132.01Q131.25 21.5 130.79 21.06Q130.33 20.63 130.33 19.92V19.27L130.63 19.32Q130.49 19.72 130.22 20.13Q129.95 20.55 129.53 20.91Q129.11 21.28 128.51 21.5Q127.91 21.73 127.1 21.73ZM127.57 20.27Q128.31 20.27 128.92 19.91Q129.54 19.55 129.91 18.8Q130.28 18.05 130.28 16.86V16.74H128.82Q127.66 16.74 126.99 17.04Q126.32 17.35 126.04 17.8Q125.77 18.25 125.77 18.69Q125.77 19.11 125.96 19.47Q126.15 19.83 126.55 20.05Q126.95 20.27 127.57 20.27Z M135.16 21.5V11.48H136.95V13.64L136.88 13.38Q137.34 12.32 138.22 11.79Q139.11 11.25 140.06 11.25Q140.33 11.25 140.6 11.3Q140.86 11.34 141.1 11.46L140.9 13.16Q140.36 13 139.85 13Q139.49 13 139.02 13.14Q138.54 13.27 138.09 13.65Q137.64 14.03 137.34 14.77Q137.05 15.5 137.05 16.71V21.5Z M147.22 21.73Q145.76 21.73 144.7 21.09Q143.63 20.45 143.06 19.27Q142.48 18.1 142.48 16.49Q142.48 14.88 143.06 13.71Q143.63 12.53 144.7 11.89Q145.76 11.25 147.21 11.25Q148.3 11.25 149.19 11.65Q150.07 12.05 150.68 12.8Q151.3 13.56 151.57 14.64L149.7 15.09Q149.46 13.95 148.82 13.35Q148.19 12.75 147.21 12.75Q145.9 12.75 145.2 13.74Q144.51 14.73 144.51 16.5Q144.51 18.27 145.2 19.25Q145.9 20.23 147.21 20.23Q148.18 20.23 148.81 19.66Q149.44 19.09 149.71 17.98L151.54 18.43Q151.33 19.23 150.92 19.85Q150.52 20.46 149.96 20.88Q149.4 21.3 148.7 21.51Q148.01 21.73 147.22 21.73Z M153.72 21.5V7.58H155.6V13.84L155.44 13.43Q155.85 12.46 156.71 11.86Q157.57 11.25 158.8 11.25Q159.89 11.25 160.65 11.74Q161.41 12.23 161.81 13.12Q162.21 14.02 162.21 15.25V21.5H160.33V15.42Q160.33 14.16 159.89 13.46Q159.45 12.77 158.33 12.77Q157.08 12.77 156.34 13.66Q155.6 14.56 155.6 16.36V21.5Z"/>
</svg>
